<?xml version="1.0" encoding="UTF-8" standalone="no"?>
<!DOCTYPE svg PUBLIC "-//W3C//DTD SVG 1.1//EN" "http://www.w3.org/Graphics/SVG/1.1/DTD/svg11.dtd">
<svg width="100%" height="100%" viewBox="0 0 90 84" version="1.1" xmlns="http://www.w3.org/2000/svg" xmlns:xlink="http://www.w3.org/1999/xlink" xml:space="preserve" xmlns:serif="http://www.serif.com/" style="fill-rule:evenodd;clip-rule:evenodd;stroke-linejoin:round;stroke-miterlimit:1.41421;">
    <g transform="matrix(1,0,0,1,-1681,-32)">
        <g transform="matrix(1.37931,0,0,1.28205,-568.655,11.4872)">
            <path d="M1696,19.9C1696,17.748 1694.38,16 1692.38,16L1634.63,16C1632.62,16 1631,17.748 1631,19.9L1631,77.1C1631,79.252 1632.62,81 1634.63,81L1692.38,81C1694.38,81 1696,79.252 1696,77.1L1696,19.9Z"/>
        </g>
        <g transform="matrix(0.739557,0,0,0.739557,1696.57,44.4083)">
            <path d="M47.624,0.124L59.645,9.854L44.5,24.5L54.5,34.5L69.161,19.339L79.124,31.624L79.124,0.124L47.624,0.124ZM24.5,44.5L9.847,59.653L0,47.5L0,79L31.5,79L19.347,69.153L34.5,54.5L24.5,44.5Z" style="fill:white;fill-rule:nonzero;"/>
        </g>
    </g>
</svg>
