<?xml version="1.0" encoding="UTF-8" standalone="no"?>
<!DOCTYPE svg PUBLIC "-//W3C//DTD SVG 1.1//EN" "http://www.w3.org/Graphics/SVG/1.1/DTD/svg11.dtd">
<svg width="100%" height="100%" viewBox="0 0 15 15" version="1.1" xmlns="http://www.w3.org/2000/svg" xmlns:xlink="http://www.w3.org/1999/xlink" xml:space="preserve" xmlns:serif="http://www.serif.com/" style="fill-rule:evenodd;clip-rule:evenodd;stroke-linejoin:round;stroke-miterlimit:1.41421;">
    <g transform="matrix(0.0319239,0,0,0.0319239,0.5,0.499952)">
        <path d="M396.58,5.424C392.959,1.807 388.675,0 383.727,0L54.824,0C49.872,0 45.589,1.807 41.972,5.424C38.357,9.039 36.548,13.322 36.548,18.271L36.548,237.539C36.548,253.91 39.734,270.135 46.111,286.22C52.485,302.304 60.385,316.581 69.808,329.048C79.231,341.518 90.459,353.653 103.497,365.453C116.537,377.259 128.575,387.053 139.613,394.862C150.651,402.665 162.167,410.043 174.158,416.983C186.149,423.926 194.669,428.646 199.711,431.117C204.754,433.595 208.799,435.497 211.843,436.825C214.129,437.968 216.601,438.543 219.269,438.543C221.94,438.543 224.409,437.968 226.697,436.825C229.739,435.497 233.784,433.595 238.825,431.117C243.866,428.646 252.39,423.927 264.382,416.983C276.366,410.043 287.886,402.665 298.922,394.862C309.965,387.052 322.001,377.258 335.043,365.453C348.074,353.653 359.306,341.517 368.728,329.048C378.149,316.581 386.047,302.304 392.433,286.22C398.812,270.135 401.995,253.91 401.995,237.539L401.995,18.271C401.994,13.319 400.187,9.04 396.58,5.424ZM347.178,237.539C347.178,271.039 324.811,305.298 280.083,340.32C262.191,354.402 241.919,367.444 219.27,379.435L219.27,54.813L347.178,54.813L347.178,237.539Z" style="fill:white;fill-rule:nonzero;"/>
    </g>
</svg>
