<?xml version="1.0" encoding="UTF-8" standalone="no"?>
<!DOCTYPE svg PUBLIC "-//W3C//DTD SVG 1.1//EN" "http://www.w3.org/Graphics/SVG/1.1/DTD/svg11.dtd">
<svg width="100%" height="100%" viewBox="0 0 15 15" version="1.1" xmlns="http://www.w3.org/2000/svg" xmlns:xlink="http://www.w3.org/1999/xlink" xml:space="preserve" xmlns:serif="http://www.serif.com/" style="fill-rule:evenodd;clip-rule:evenodd;stroke-linejoin:round;stroke-miterlimit:1.41421;">
    <g transform="matrix(0.507634,0,0,0.507634,0.325862,0.325725)">
        <path d="M14.133,28.265C7.072,28.265 1.328,22.515 1.328,15.456C1.328,8.396 7.072,2.649 14.133,2.649C14.602,2.649 15.076,2.676 15.547,2.729L15.547,0.659C15.547,0.393 15.711,0.151 15.953,0.048C16.205,-0.05 16.484,0.005 16.676,0.196L21.213,4.743C21.471,5.001 21.471,5.413 21.213,5.675L16.678,10.232C16.485,10.42 16.205,10.478 15.953,10.375C15.711,10.271 15.547,10.031 15.547,9.766L15.547,7.47C15.078,7.384 14.606,7.345 14.133,7.345C9.66,7.345 6.02,10.984 6.02,15.456C6.02,19.927 9.661,23.569 14.133,23.569C18.605,23.569 22.244,19.926 22.244,15.456C22.244,15.093 22.539,14.796 22.906,14.796L26.275,14.796C26.64,14.796 26.937,15.093 26.937,15.456C26.937,22.515 21.189,28.265 14.133,28.265Z" style="fill:white;fill-rule:nonzero;"/>
    </g>
</svg>
