<?xml version="1.0" encoding="UTF-8" standalone="no"?>
<!DOCTYPE svg PUBLIC "-//W3C//DTD SVG 1.1//EN" "http://www.w3.org/Graphics/SVG/1.1/DTD/svg11.dtd">
<svg width="100%" height="100%" viewBox="0 0 15 15" version="1.1" xmlns="http://www.w3.org/2000/svg" xmlns:xlink="http://www.w3.org/1999/xlink" xml:space="preserve" xmlns:serif="http://www.serif.com/" style="fill-rule:evenodd;clip-rule:evenodd;stroke-linejoin:round;stroke-miterlimit:1.41421;">
    <g transform="matrix(0.0294456,0,0,0.0294456,0.500013,0.499921)">
        <path d="M468.083,118.385C464.093,113.055 458.473,108.966 451.229,106.11C451.616,112.775 451.143,118.2 449.809,122.391L364.159,404.18C362.633,409.128 359.3,413.077 354.167,416.028C349.026,418.981 343.698,420.456 338.178,420.456L74.66,420.456C51.82,420.456 38.118,413.804 33.548,400.471C31.645,395.331 31.741,391.242 33.836,388.196C35.928,385.339 39.544,383.908 44.686,383.908L292.788,383.908C310.49,383.908 322.718,380.623 329.476,374.056C336.239,367.489 343.041,352.879 349.889,330.232L428.117,71.563C432.303,57.479 430.591,45.106 422.976,34.45C415.361,23.794 404.514,18.463 390.428,18.463L173.163,18.463C170.689,18.463 165.834,19.317 158.601,21.031L158.885,20.172C153.555,19.032 149.034,18.51 145.323,18.601C141.613,18.7 138.186,19.793 135.046,21.89C131.906,23.984 129.382,26.218 127.48,28.596C125.577,30.976 123.719,34.022 121.912,37.732C120.107,41.447 118.582,44.874 117.345,48.014C116.108,51.154 114.679,54.487 113.064,58.012C111.444,61.533 109.878,64.435 108.354,66.718C107.211,68.241 105.596,70.239 103.5,72.714C101.409,75.188 99.695,77.378 98.363,79.281C97.032,81.184 96.173,82.897 95.795,84.421C95.417,86.132 95.605,88.654 96.366,91.987C97.126,95.315 97.413,97.74 97.22,99.264C96.46,106.496 93.842,115.678 89.371,126.816C84.9,137.952 80.851,145.996 77.236,150.942C76.475,151.892 74.383,154.034 70.956,157.366C67.529,160.696 65.436,163.596 64.677,166.07C63.915,167.021 63.867,169.687 64.533,174.064C65.199,178.444 65.44,181.487 65.248,183.2C64.483,189.673 62.108,198.237 58.109,208.897C54.11,219.554 50.115,228.311 46.116,235.162C45.547,236.303 43.931,238.49 41.263,241.729C38.601,244.966 36.98,247.631 36.41,249.719C36.03,251.242 36.08,253.907 36.554,257.713C37.027,261.519 36.98,264.373 36.41,266.275C34.889,273.503 32.033,282.215 27.845,292.4C23.658,302.578 19.375,311.296 14.994,318.521C13.856,320.427 12.282,322.666 10.286,325.232C8.287,327.798 6.718,330.037 5.575,331.939C4.434,333.842 3.672,335.84 3.291,337.935C3.101,339.078 3.389,340.933 4.15,343.506C4.91,346.072 5.197,348.118 5.004,349.646C4.812,352.308 4.434,355.833 3.863,360.213C3.291,364.586 3.004,367.152 3.004,367.912C-1.183,379.336 -0.995,391.423 3.576,404.181C8.906,419.019 18.373,431.541 31.982,441.722C45.592,451.907 59.722,456.992 74.38,456.992L337.901,456.992C350.268,456.992 361.927,452.851 372.872,444.576C383.816,436.295 391.099,426.069 394.709,413.88L473.22,155.218C477.412,141.51 475.701,129.234 468.083,118.385ZM164.31,118.956L170.307,100.682C171.067,98.208 172.636,96.067 175.016,94.259C177.396,92.454 179.824,91.547 182.298,91.547L355.887,91.547C358.55,91.547 360.452,92.45 361.595,94.259C362.735,96.068 362.93,98.208 362.17,100.682L356.168,118.956C355.404,121.431 353.841,123.567 351.455,125.38C349.073,127.185 346.65,128.088 344.177,128.088L170.593,128.088C167.927,128.088 166.025,127.188 164.882,125.38C163.74,123.567 163.55,121.431 164.31,118.956ZM140.615,192.045L146.611,173.774C147.371,171.3 148.942,169.159 151.32,167.351C153.7,165.542 156.125,164.639 158.602,164.639L332.185,164.639C334.851,164.639 336.757,165.539 337.897,167.351C339.037,169.16 339.228,171.3 338.465,173.774L332.469,192.045C331.71,194.519 330.139,196.662 327.761,198.468C325.378,200.277 322.956,201.18 320.478,201.18L146.895,201.18C144.231,201.18 142.328,200.28 141.187,198.468C140.043,196.662 139.854,194.519 140.615,192.045Z" style="fill:white;fill-rule:nonzero;"/>
    </g>
</svg>
