<?xml version="1.0" encoding="UTF-8" standalone="no"?>
<!DOCTYPE svg PUBLIC "-//W3C//DTD SVG 1.1//EN" "http://www.w3.org/Graphics/SVG/1.1/DTD/svg11.dtd">
<svg width="100%" height="100%" viewBox="0 0 15 15" version="1.1" xmlns="http://www.w3.org/2000/svg" xmlns:xlink="http://www.w3.org/1999/xlink" xml:space="preserve" xmlns:serif="http://www.serif.com/" style="fill-rule:evenodd;clip-rule:evenodd;stroke-linejoin:round;stroke-miterlimit:1.41421;">
    <g id="Game_Pad" transform="matrix(0.0228757,0,0,0.0228757,0.499995,0.499953)">
        <path d="M599.056,276.646C569.037,139.071 526.71,105.153 500.94,91.551C459.663,69.767 411.811,82.443 395.936,90.659C377.911,99.943 365.743,117.618 347.42,125.293C326.247,134.122 297.452,136.517 275.791,125.853C258.535,117.339 243.307,99.156 222.397,91.114C195.892,80.886 151.747,66.55 108.039,97.88C97.706,105.293 24.015,167.078 1.881,360.092C-11.773,479.103 53.474,517.39 51.079,515.66C67.863,527.689 105.452,548.021 156.381,516.168C190.421,494.891 218.044,452.861 218.044,452.861C218.044,452.861 230.352,429.486 246.699,419.554C258.273,412.509 275.581,417.859 275.581,417.859L336.826,417.859C336.826,417.859 356.267,415.412 369.922,421.443C383.174,427.23 390.656,441.513 390.656,441.513C390.656,441.513 431.025,493.683 469.716,520.275C486.185,531.57 552.377,544.578 586.556,502.828C608.881,475.501 624.109,391.494 599.056,276.646ZM271.875,264.461C271.875,274.916 263.57,283.378 253.325,283.378L206.925,283.378L206.925,330.74C206.925,341.213 198.62,349.691 188.375,349.691L174.458,349.691C164.213,349.691 155.909,341.23 155.909,330.74L155.909,283.378L109.49,283.378C99.245,283.378 90.94,274.933 90.94,264.461L90.94,250.265C90.94,239.792 99.245,231.313 109.49,231.313L155.89,231.313L155.89,184.003C155.89,173.548 164.195,165.051 174.44,165.051L188.357,165.051C198.602,165.051 206.907,173.53 206.907,184.003L206.907,231.33L253.307,231.33C263.552,231.33 271.857,239.792 271.857,250.282L271.857,264.461L271.875,264.461ZM402.562,330.722C383.348,330.722 367.771,314.847 367.771,295.214C367.771,275.615 383.348,259.723 402.562,259.723C421.776,259.723 437.354,275.598 437.354,295.214C437.371,314.847 421.775,330.722 402.562,330.722ZM466.358,251.855C447.353,251.855 431.951,236.138 431.951,216.731C431.951,197.377 447.353,181.66 466.358,181.66C485.362,181.66 500.764,197.378 500.764,216.731C500.765,236.138 485.362,251.855 466.358,251.855Z" style="fill:white;fill-rule:nonzero;"/>
    </g>
</svg>
