<?xml version="1.0" encoding="UTF-8" standalone="no"?>
<!DOCTYPE svg PUBLIC "-//W3C//DTD SVG 1.1//EN" "http://www.w3.org/Graphics/SVG/1.1/DTD/svg11.dtd">
<svg width="100%" height="100%" viewBox="0 0 45 35" version="1.1" xmlns="http://www.w3.org/2000/svg" xmlns:xlink="http://www.w3.org/1999/xlink" xml:space="preserve" xmlns:serif="http://www.serif.com/" style="fill-rule:evenodd;clip-rule:evenodd;stroke-linejoin:round;stroke-miterlimit:1.41421;">
    <g transform="matrix(0.473547,0,0,0.473547,0,-4.52933)">
        <path d="M46.547,75.521C46.547,77.16 45.6,78.649 44.118,79.344C43.545,79.615 42.931,79.746 42.321,79.746C41.355,79.746 40.398,79.414 39.625,78.773L16.527,59.633L4.225,59.633C1.892,59.635 0,57.742 0,55.409L0,38.576C0,36.242 1.892,34.35 4.225,34.35L16.528,34.35L39.626,15.21C40.888,14.164 42.638,13.941 44.119,14.641C45.6,15.336 46.548,16.826 46.548,18.464L46.547,75.521ZM62.784,68.919C62.681,68.926 62.582,68.93 62.48,68.93C61.364,68.93 60.288,68.489 59.493,67.693L58.928,67.126C57.446,65.647 57.272,63.304 58.52,61.622C61.684,57.356 63.354,52.299 63.354,46.994C63.354,41.288 61.458,35.936 57.87,31.516C56.504,29.836 56.63,27.396 58.161,25.866L58.725,25.301C59.569,24.457 60.7,23.997 61.924,24.07C63.116,24.13 64.229,24.691 64.985,25.615C69.962,31.705 72.591,39.099 72.591,46.995C72.591,54.349 70.266,61.349 65.866,67.235C65.131,68.216 64.007,68.832 62.784,68.919ZM80.252,81.976C79.488,82.879 78.383,83.421 77.2,83.471C77.142,83.473 77.083,83.475 77.023,83.475C75.904,83.475 74.83,83.033 74.035,82.238L73.48,81.683C71.929,80.133 71.824,77.654 73.234,75.976C80.048,67.872 83.802,57.58 83.802,46.994C83.802,35.983 79.783,25.383 72.488,17.147C71.009,15.475 71.084,12.944 72.658,11.364L73.212,10.809C74.034,9.983 75.102,9.528 76.327,9.567C77.49,9.6 78.59,10.114 79.363,10.984C88.181,20.912 93.038,33.702 93.038,46.994C93.04,59.783 88.499,72.207 80.252,81.976Z" style="fill:white;fill-rule:nonzero;"/>
    </g>
</svg>
